<?xml version="1.0" encoding="UTF-8"?>
<svg version="1.1" xmlns="http://www.w3.org/2000/svg" width="300" height="300">
<path d="M0 0 C33 0 66 0 100 0 C100 33 100 66 100 100 C133 100 166 100 200 100 C200 133 200 166 200 200 C167 200 134 200 100 200 C100 233 100 266 100 300 C67 300 34 300 0 300 C0 201 0 102 0 0 Z " fill="#FFFFFF" transform="translate(0,0)"/>
<path d="M0 0 C33 0 66 0 100 0 C100 33 100 66 100 100 C67 100 34 100 0 100 C0 67 0 34 0 0 Z " fill="#FFFFFF" transform="translate(200,200)"/>
<path d="M0 0 C33 0 66 0 100 0 C100 33 100 66 100 100 C67 100 34 100 0 100 C0 67 0 34 0 0 Z " fill="#FFFFFF" transform="translate(200,0)"/>
</svg>
